<mxfile host="app.diagrams.net" modified="2021-04-12T18:10:08.958Z" agent="5.0 (Windows NT 10.0; Win64; x64) AppleWebKit/537.36 (KHTML, like Gecko) Chrome/89.0.4389.114 Safari/537.36" etag="laRLhyjzF_7stV-h9y03" version="14.5.10" type="github">
  <diagram id="d-RoL-zdmoc4ewm4AKJJ" name="Page-1">
    <mxGraphModel dx="2249" dy="762" grid="1" gridSize="10" guides="1" tooltips="1" connect="1" arrows="1" fold="1" page="1" pageScale="1" pageWidth="827" pageHeight="1169" math="0" shadow="0">
      <root>
        <mxCell id="0" />
        <mxCell id="1" parent="0" />
        <mxCell id="Q0tdEYv2hDNhSjcLpnYc-4" style="edgeStyle=orthogonalEdgeStyle;rounded=0;orthogonalLoop=1;jettySize=auto;html=1;" edge="1" parent="1" source="Q0tdEYv2hDNhSjcLpnYc-1" target="Q0tdEYv2hDNhSjcLpnYc-2">
          <mxGeometry relative="1" as="geometry" />
        </mxCell>
        <mxCell id="Q0tdEYv2hDNhSjcLpnYc-8" style="edgeStyle=orthogonalEdgeStyle;rounded=0;orthogonalLoop=1;jettySize=auto;html=1;" edge="1" parent="1" source="Q0tdEYv2hDNhSjcLpnYc-1" target="Q0tdEYv2hDNhSjcLpnYc-9">
          <mxGeometry relative="1" as="geometry">
            <mxPoint x="630" y="280" as="targetPoint" />
          </mxGeometry>
        </mxCell>
        <mxCell id="Q0tdEYv2hDNhSjcLpnYc-16" style="edgeStyle=orthogonalEdgeStyle;rounded=0;orthogonalLoop=1;jettySize=auto;html=1;exitX=0.5;exitY=1;exitDx=0;exitDy=0;entryX=0.5;entryY=0;entryDx=0;entryDy=0;" edge="1" parent="1" source="Q0tdEYv2hDNhSjcLpnYc-1" target="Q0tdEYv2hDNhSjcLpnYc-15">
          <mxGeometry relative="1" as="geometry" />
        </mxCell>
        <mxCell id="Q0tdEYv2hDNhSjcLpnYc-1" value="Система электронного документооборота" style="rounded=0;whiteSpace=wrap;html=1;" vertex="1" parent="1">
          <mxGeometry x="300" y="120" width="140" height="70" as="geometry" />
        </mxCell>
        <mxCell id="Q0tdEYv2hDNhSjcLpnYc-3" style="edgeStyle=orthogonalEdgeStyle;rounded=0;orthogonalLoop=1;jettySize=auto;html=1;" edge="1" parent="1" source="Q0tdEYv2hDNhSjcLpnYc-2">
          <mxGeometry relative="1" as="geometry">
            <mxPoint x="150" y="380" as="targetPoint" />
            <Array as="points">
              <mxPoint x="110" y="380" />
            </Array>
          </mxGeometry>
        </mxCell>
        <mxCell id="Q0tdEYv2hDNhSjcLpnYc-34" style="edgeStyle=orthogonalEdgeStyle;rounded=0;orthogonalLoop=1;jettySize=auto;html=1;" edge="1" parent="1" source="Q0tdEYv2hDNhSjcLpnYc-2">
          <mxGeometry relative="1" as="geometry">
            <mxPoint x="-80" y="370" as="targetPoint" />
          </mxGeometry>
        </mxCell>
        <mxCell id="Q0tdEYv2hDNhSjcLpnYc-2" value="Документооборот" style="rounded=0;whiteSpace=wrap;html=1;" vertex="1" parent="1">
          <mxGeometry x="90" y="270" width="120" height="60" as="geometry" />
        </mxCell>
        <mxCell id="Q0tdEYv2hDNhSjcLpnYc-7" style="edgeStyle=orthogonalEdgeStyle;rounded=0;orthogonalLoop=1;jettySize=auto;html=1;entryX=0.5;entryY=0;entryDx=0;entryDy=0;" edge="1" parent="1" source="Q0tdEYv2hDNhSjcLpnYc-5" target="Q0tdEYv2hDNhSjcLpnYc-6">
          <mxGeometry relative="1" as="geometry">
            <Array as="points">
              <mxPoint x="120" y="465" />
              <mxPoint x="60" y="465" />
            </Array>
          </mxGeometry>
        </mxCell>
        <mxCell id="Q0tdEYv2hDNhSjcLpnYc-29" style="edgeStyle=orthogonalEdgeStyle;rounded=0;orthogonalLoop=1;jettySize=auto;html=1;exitX=0.75;exitY=1;exitDx=0;exitDy=0;entryX=0.5;entryY=0;entryDx=0;entryDy=0;" edge="1" parent="1" source="Q0tdEYv2hDNhSjcLpnYc-5" target="Q0tdEYv2hDNhSjcLpnYc-25">
          <mxGeometry relative="1" as="geometry" />
        </mxCell>
        <mxCell id="Q0tdEYv2hDNhSjcLpnYc-32" style="edgeStyle=orthogonalEdgeStyle;rounded=0;orthogonalLoop=1;jettySize=auto;html=1;exitX=0.5;exitY=1;exitDx=0;exitDy=0;" edge="1" parent="1" source="Q0tdEYv2hDNhSjcLpnYc-5">
          <mxGeometry relative="1" as="geometry">
            <mxPoint x="160" y="500" as="targetPoint" />
          </mxGeometry>
        </mxCell>
        <mxCell id="Q0tdEYv2hDNhSjcLpnYc-5" value="Выбор категории" style="rounded=0;whiteSpace=wrap;html=1;" vertex="1" parent="1">
          <mxGeometry x="40" y="370" width="120" height="60" as="geometry" />
        </mxCell>
        <mxCell id="Q0tdEYv2hDNhSjcLpnYc-6" value="Отображение документов" style="rounded=0;whiteSpace=wrap;html=1;" vertex="1" parent="1">
          <mxGeometry x="-10" y="500" width="120" height="60" as="geometry" />
        </mxCell>
        <mxCell id="Q0tdEYv2hDNhSjcLpnYc-10" style="edgeStyle=orthogonalEdgeStyle;rounded=0;orthogonalLoop=1;jettySize=auto;html=1;exitX=0;exitY=1;exitDx=0;exitDy=0;entryX=0.5;entryY=0;entryDx=0;entryDy=0;" edge="1" parent="1" source="Q0tdEYv2hDNhSjcLpnYc-9" target="Q0tdEYv2hDNhSjcLpnYc-11">
          <mxGeometry relative="1" as="geometry">
            <mxPoint x="500" y="390" as="targetPoint" />
            <Array as="points">
              <mxPoint x="620" y="330" />
            </Array>
          </mxGeometry>
        </mxCell>
        <mxCell id="Q0tdEYv2hDNhSjcLpnYc-9" value="Личный кабинет" style="rounded=0;whiteSpace=wrap;html=1;" vertex="1" parent="1">
          <mxGeometry x="570" y="270" width="120" height="60" as="geometry" />
        </mxCell>
        <mxCell id="Q0tdEYv2hDNhSjcLpnYc-11" value="Авторизация/Регистрация пользователя" style="whiteSpace=wrap;html=1;" vertex="1" parent="1">
          <mxGeometry x="560" y="410" width="120" height="60" as="geometry" />
        </mxCell>
        <mxCell id="Q0tdEYv2hDNhSjcLpnYc-17" style="edgeStyle=orthogonalEdgeStyle;rounded=0;orthogonalLoop=1;jettySize=auto;html=1;" edge="1" parent="1" source="Q0tdEYv2hDNhSjcLpnYc-15">
          <mxGeometry relative="1" as="geometry">
            <mxPoint x="370" y="410" as="targetPoint" />
          </mxGeometry>
        </mxCell>
        <mxCell id="Q0tdEYv2hDNhSjcLpnYc-19" style="edgeStyle=orthogonalEdgeStyle;rounded=0;orthogonalLoop=1;jettySize=auto;html=1;exitX=1;exitY=1;exitDx=0;exitDy=0;entryX=0.5;entryY=0;entryDx=0;entryDy=0;" edge="1" parent="1" source="Q0tdEYv2hDNhSjcLpnYc-15" target="Q0tdEYv2hDNhSjcLpnYc-20">
          <mxGeometry relative="1" as="geometry">
            <mxPoint x="490" y="410" as="targetPoint" />
          </mxGeometry>
        </mxCell>
        <mxCell id="Q0tdEYv2hDNhSjcLpnYc-15" value="Пользователи" style="whiteSpace=wrap;html=1;" vertex="1" parent="1">
          <mxGeometry x="310" y="270" width="120" height="60" as="geometry" />
        </mxCell>
        <mxCell id="Q0tdEYv2hDNhSjcLpnYc-18" value="Просмотр пользователей" style="whiteSpace=wrap;html=1;" vertex="1" parent="1">
          <mxGeometry x="310" y="410" width="120" height="60" as="geometry" />
        </mxCell>
        <mxCell id="Q0tdEYv2hDNhSjcLpnYc-20" value="Управление пользователями*(для администратора)" style="whiteSpace=wrap;html=1;" vertex="1" parent="1">
          <mxGeometry x="440" y="410" width="100" height="60" as="geometry" />
        </mxCell>
        <mxCell id="Q0tdEYv2hDNhSjcLpnYc-25" value="Загрузка документа" style="whiteSpace=wrap;html=1;" vertex="1" parent="1">
          <mxGeometry x="240" y="500" width="120" height="60" as="geometry" />
        </mxCell>
        <mxCell id="Q0tdEYv2hDNhSjcLpnYc-33" value="Обновление документа" style="whiteSpace=wrap;html=1;" vertex="1" parent="1">
          <mxGeometry x="130" y="500" width="90" height="60" as="geometry" />
        </mxCell>
        <mxCell id="Q0tdEYv2hDNhSjcLpnYc-35" value="Создание/редактирование категории" style="whiteSpace=wrap;html=1;" vertex="1" parent="1">
          <mxGeometry x="-140" y="370" width="120" height="60" as="geometry" />
        </mxCell>
      </root>
    </mxGraphModel>
  </diagram>
</mxfile>
